<mxfile host="65bd71144e">
    <diagram id="FpP88SdQx1FiHgm2KiF4" name="Page-1">
        <mxGraphModel dx="1010" dy="779" grid="1" gridSize="10" guides="1" tooltips="1" connect="1" arrows="1" fold="1" page="1" pageScale="1" pageWidth="850" pageHeight="1100" math="0" shadow="0">
            <root>
                <mxCell id="0"/>
                <mxCell id="1" parent="0"/>
                <mxCell id="58" value="Customer" style="rounded=0;whiteSpace=wrap;html=1;fillColor=#e1d5e7;strokeColor=#9673a6;" vertex="1" parent="1">
                    <mxGeometry x="40" y="105" width="110" height="60" as="geometry"/>
                </mxCell>
                <mxCell id="59" value="Guest" style="rounded=0;whiteSpace=wrap;html=1;fillColor=#e1d5e7;strokeColor=#9673a6;" vertex="1" parent="1">
                    <mxGeometry x="717" y="120" width="110" height="60" as="geometry"/>
                </mxCell>
                <mxCell id="60" value="VNPay" style="rounded=0;whiteSpace=wrap;html=1;fillColor=#e1d5e7;strokeColor=#9673a6;" vertex="1" parent="1">
                    <mxGeometry x="354" y="30" width="120" height="60" as="geometry"/>
                </mxCell>
                <mxCell id="61" value="" style="endArrow=classic;html=1;rounded=0;entryX=0.5;entryY=0;entryDx=0;entryDy=0;" edge="1" parent="1" target="89">
                    <mxGeometry width="50" height="50" relative="1" as="geometry">
                        <mxPoint x="414" y="140" as="sourcePoint"/>
                        <mxPoint x="410" y="210" as="targetPoint"/>
                    </mxGeometry>
                </mxCell>
                <mxCell id="62" value="" style="endArrow=classic;html=1;rounded=0;fontFamily=Helvetica;fontSize=11;fontColor=default;labelBackgroundColor=default;resizable=0;entryX=1;entryY=0.5;entryDx=0;entryDy=0;exitX=0;exitY=0.25;exitDx=0;exitDy=0;" edge="1" parent="1" source="59" target="89">
                    <mxGeometry relative="1" as="geometry">
                        <mxPoint x="390" y="190" as="sourcePoint"/>
                        <mxPoint x="490" y="190" as="targetPoint"/>
                        <Array as="points">
                            <mxPoint x="590" y="135"/>
                            <mxPoint x="700" y="135"/>
                            <mxPoint x="499" y="135"/>
                            <mxPoint x="499" y="220"/>
                        </Array>
                    </mxGeometry>
                </mxCell>
                <mxCell id="63" value="Room Availability Inquiry" style="edgeLabel;resizable=0;html=1;;align=center;verticalAlign=middle;fontFamily=Helvetica;fontSize=11;fontColor=default;labelBackgroundColor=default;fillColor=none;gradientColor=none;" connectable="0" vertex="1" parent="62">
                    <mxGeometry relative="1" as="geometry"/>
                </mxCell>
                <mxCell id="64" value="Manager&lt;div&gt;&lt;br&gt;&lt;/div&gt;" style="rounded=0;whiteSpace=wrap;html=1;fillColor=#e1d5e7;strokeColor=#9673a6;" vertex="1" parent="1">
                    <mxGeometry x="670" y="480" width="120" height="60" as="geometry"/>
                </mxCell>
                <mxCell id="65" value="Gmaiil" style="rounded=0;whiteSpace=wrap;html=1;fillColor=#e1d5e7;strokeColor=#9673a6;" vertex="1" parent="1">
                    <mxGeometry x="354" y="620" width="120" height="60" as="geometry"/>
                </mxCell>
                <mxCell id="66" value="Receptionist" style="rounded=0;whiteSpace=wrap;html=1;fillColor=#e1d5e7;strokeColor=#9673a6;" vertex="1" parent="1">
                    <mxGeometry x="40" y="520" width="120" height="60" as="geometry"/>
                </mxCell>
                <mxCell id="67" value="Payment" style="text;html=1;align=center;verticalAlign=middle;resizable=0;points=[];autosize=1;strokeColor=none;fillColor=none;" vertex="1" parent="1">
                    <mxGeometry x="379" y="120" width="70" height="30" as="geometry"/>
                </mxCell>
                <mxCell id="68" value="" style="endArrow=none;html=1;rounded=0;entryX=0.5;entryY=1;entryDx=0;entryDy=0;" edge="1" parent="1" target="60">
                    <mxGeometry width="50" height="50" relative="1" as="geometry">
                        <mxPoint x="414" y="130" as="sourcePoint"/>
                        <mxPoint x="474" y="70" as="targetPoint"/>
                    </mxGeometry>
                </mxCell>
                <mxCell id="69" value="&lt;div&gt;&lt;br&gt;&lt;/div&gt;" style="text;html=1;align=center;verticalAlign=middle;resizable=0;points=[];autosize=1;strokeColor=none;fillColor=none;" vertex="1" parent="1">
                    <mxGeometry x="245" y="205" width="20" height="30" as="geometry"/>
                </mxCell>
                <mxCell id="70" value="" style="endArrow=classic;html=1;rounded=0;entryX=0.047;entryY=0.354;entryDx=0;entryDy=0;entryPerimeter=0;" edge="1" parent="1" target="89">
                    <mxGeometry width="50" height="50" relative="1" as="geometry">
                        <mxPoint x="140" y="170" as="sourcePoint"/>
                        <mxPoint x="330" y="170" as="targetPoint"/>
                        <Array as="points">
                            <mxPoint x="140" y="280"/>
                        </Array>
                    </mxGeometry>
                </mxCell>
                <mxCell id="71" value="Payment Processing&lt;div&gt;&lt;br style=&quot;font-size: 12px; background-color: rgb(236, 236, 236);&quot;&gt;&lt;/div&gt;" style="edgeLabel;html=1;align=center;verticalAlign=middle;resizable=0;points=[];fontFamily=Helvetica;fontSize=11;fontColor=default;labelBackgroundColor=default;fillColor=none;gradientColor=none;" connectable="0" vertex="1" parent="70">
                    <mxGeometry x="-0.0164" y="-2" relative="1" as="geometry">
                        <mxPoint as="offset"/>
                    </mxGeometry>
                </mxCell>
                <mxCell id="72" value="" style="endArrow=classic;html=1;rounded=0;fontFamily=Helvetica;fontSize=11;fontColor=default;labelBackgroundColor=default;resizable=0;exitX=0;exitY=0.5;exitDx=0;exitDy=0;" edge="1" parent="1" source="59">
                    <mxGeometry relative="1" as="geometry">
                        <mxPoint x="680" y="150" as="sourcePoint"/>
                        <mxPoint x="500" y="310" as="targetPoint"/>
                        <Array as="points">
                            <mxPoint x="640" y="150"/>
                            <mxPoint x="520" y="150"/>
                            <mxPoint x="520" y="310"/>
                        </Array>
                    </mxGeometry>
                </mxCell>
                <mxCell id="73" value="Account Registration" style="edgeLabel;resizable=0;html=1;;align=center;verticalAlign=middle;fontFamily=Helvetica;fontSize=11;fontColor=default;labelBackgroundColor=default;fillColor=none;gradientColor=none;" connectable="0" vertex="1" parent="72">
                    <mxGeometry relative="1" as="geometry">
                        <mxPoint x="92" as="offset"/>
                    </mxGeometry>
                </mxCell>
                <mxCell id="74" value="" style="endArrow=classic;html=1;rounded=0;entryX=0.5;entryY=0;entryDx=0;entryDy=0;" edge="1" parent="1" target="65">
                    <mxGeometry width="50" height="50" relative="1" as="geometry">
                        <mxPoint x="414" y="590" as="sourcePoint"/>
                        <mxPoint x="464" y="540" as="targetPoint"/>
                    </mxGeometry>
                </mxCell>
                <mxCell id="75" value="" style="endArrow=none;html=1;rounded=0;" edge="1" parent="1">
                    <mxGeometry width="50" height="50" relative="1" as="geometry">
                        <mxPoint x="414" y="390" as="sourcePoint"/>
                        <mxPoint x="414" y="560" as="targetPoint"/>
                    </mxGeometry>
                </mxCell>
                <mxCell id="76" value="Promotional Email Sending" style="text;html=1;align=center;verticalAlign=middle;resizable=0;points=[];autosize=1;strokeColor=none;fillColor=none;" vertex="1" parent="1">
                    <mxGeometry x="329" y="558" width="170" height="30" as="geometry"/>
                </mxCell>
                <mxCell id="77" value="" style="endArrow=classic;html=1;rounded=0;fontFamily=Helvetica;fontSize=11;fontColor=default;labelBackgroundColor=default;resizable=0;exitX=0;exitY=0.75;exitDx=0;exitDy=0;entryX=0.988;entryY=0.589;entryDx=0;entryDy=0;entryPerimeter=0;" edge="1" parent="1" source="59" target="89">
                    <mxGeometry relative="1" as="geometry">
                        <mxPoint x="827" y="330" as="sourcePoint"/>
                        <mxPoint x="610" y="490" as="targetPoint"/>
                        <Array as="points">
                            <mxPoint x="540" y="165"/>
                            <mxPoint x="540" y="320"/>
                        </Array>
                    </mxGeometry>
                </mxCell>
                <mxCell id="78" value="Customer feedback viewing" style="edgeLabel;resizable=0;html=1;;align=center;verticalAlign=middle;fontFamily=Helvetica;fontSize=11;fontColor=default;labelBackgroundColor=default;fillColor=none;gradientColor=none;" connectable="0" vertex="1" parent="77">
                    <mxGeometry relative="1" as="geometry">
                        <mxPoint x="90" y="-11" as="offset"/>
                    </mxGeometry>
                </mxCell>
                <mxCell id="79" value="" style="endArrow=classic;html=1;rounded=0;fontFamily=Helvetica;fontSize=11;fontColor=default;labelBackgroundColor=default;resizable=0;entryX=0;entryY=0.5;entryDx=0;entryDy=0;" edge="1" parent="1" target="89">
                    <mxGeometry relative="1" as="geometry">
                        <mxPoint x="120" y="170" as="sourcePoint"/>
                        <mxPoint x="200" y="310" as="targetPoint"/>
                        <Array as="points">
                            <mxPoint x="120" y="305"/>
                        </Array>
                    </mxGeometry>
                </mxCell>
                <mxCell id="80" value="Room Detail Display" style="edgeLabel;resizable=0;html=1;;align=center;verticalAlign=middle;fontFamily=Helvetica;fontSize=11;fontColor=default;labelBackgroundColor=default;fillColor=none;gradientColor=none;" connectable="0" vertex="1" parent="79">
                    <mxGeometry relative="1" as="geometry"/>
                </mxCell>
                <mxCell id="81" value="" style="endArrow=classic;html=1;rounded=0;fontFamily=Helvetica;fontSize=11;fontColor=default;labelBackgroundColor=default;resizable=0;entryX=-0.009;entryY=0.628;entryDx=0;entryDy=0;entryPerimeter=0;" edge="1" parent="1" target="89">
                    <mxGeometry relative="1" as="geometry">
                        <mxPoint x="100" y="170" as="sourcePoint"/>
                        <mxPoint x="309" y="325" as="targetPoint"/>
                        <Array as="points">
                            <mxPoint x="100" y="325"/>
                        </Array>
                    </mxGeometry>
                </mxCell>
                <mxCell id="82" value="Change password" style="edgeLabel;resizable=0;html=1;;align=center;verticalAlign=middle;fontFamily=Helvetica;fontSize=11;fontColor=default;labelBackgroundColor=default;fillColor=none;gradientColor=none;" connectable="0" vertex="1" parent="81">
                    <mxGeometry relative="1" as="geometry">
                        <mxPoint x="74" as="offset"/>
                    </mxGeometry>
                </mxCell>
                <mxCell id="83" value="" style="endArrow=classic;html=1;rounded=0;fontFamily=Helvetica;fontSize=11;fontColor=default;labelBackgroundColor=default;resizable=0;entryX=0.064;entryY=0.712;entryDx=0;entryDy=0;entryPerimeter=0;" edge="1" parent="1" target="89">
                    <mxGeometry relative="1" as="geometry">
                        <mxPoint x="80" y="170" as="sourcePoint"/>
                        <mxPoint x="289" y="340" as="targetPoint"/>
                        <Array as="points">
                            <mxPoint x="80" y="340"/>
                        </Array>
                    </mxGeometry>
                </mxCell>
                <mxCell id="84" value="View &amp;amp; Edit profile" style="edgeLabel;resizable=0;html=1;;align=center;verticalAlign=middle;fontFamily=Helvetica;fontSize=11;fontColor=default;labelBackgroundColor=default;fillColor=none;gradientColor=none;" connectable="0" vertex="1" parent="83">
                    <mxGeometry relative="1" as="geometry">
                        <mxPoint x="25" as="offset"/>
                    </mxGeometry>
                </mxCell>
                <mxCell id="85" value="" style="endArrow=classic;html=1;rounded=0;fontFamily=Helvetica;fontSize=11;fontColor=default;labelBackgroundColor=default;resizable=0;entryX=0.1;entryY=0.247;entryDx=0;entryDy=0;entryPerimeter=0;" edge="1" parent="1" target="89">
                    <mxGeometry relative="1" as="geometry">
                        <mxPoint x="150" y="143" as="sourcePoint"/>
                        <mxPoint x="340" y="260" as="targetPoint"/>
                        <Array as="points">
                            <mxPoint x="180" y="143"/>
                            <mxPoint x="180" y="260"/>
                        </Array>
                    </mxGeometry>
                </mxCell>
                <mxCell id="86" value="Room booking" style="edgeLabel;resizable=0;html=1;;align=center;verticalAlign=middle;fontFamily=Helvetica;fontSize=11;fontColor=default;labelBackgroundColor=default;fillColor=none;gradientColor=none;" connectable="0" vertex="1" parent="85">
                    <mxGeometry relative="1" as="geometry"/>
                </mxCell>
                <mxCell id="87" value="" style="endArrow=none;html=1;rounded=0;" edge="1" parent="1" source="89">
                    <mxGeometry width="50" height="50" relative="1" as="geometry">
                        <mxPoint x="390" y="320" as="sourcePoint"/>
                        <mxPoint x="440" y="270" as="targetPoint"/>
                    </mxGeometry>
                </mxCell>
                <mxCell id="88" value="" style="endArrow=none;html=1;rounded=0;" edge="1" parent="1" target="89">
                    <mxGeometry width="50" height="50" relative="1" as="geometry">
                        <mxPoint x="390" y="320" as="sourcePoint"/>
                        <mxPoint x="440" y="270" as="targetPoint"/>
                    </mxGeometry>
                </mxCell>
                <mxCell id="89" value="&lt;span style=&quot;font-family: SegoeuiPc, Arial; color: rgb(8, 27, 58);&quot; data-sheets-root=&quot;1&quot;&gt;&lt;font style=&quot;font-size: 18px;&quot;&gt;HotelHub managerment&lt;/font&gt;&lt;/span&gt;" style="ellipse;whiteSpace=wrap;html=1;aspect=fixed;fillColor=#e1d5e7;strokeColor=#9673a6;" vertex="1" parent="1">
                    <mxGeometry x="329" y="220" width="170" height="170" as="geometry"/>
                </mxCell>
                <mxCell id="90" value="Booking Management" style="edgeStyle=segmentEdgeStyle;endArrow=classic;html=1;curved=0;rounded=0;endSize=8;startSize=8;sourcePerimeterSpacing=0;targetPerimeterSpacing=0;exitX=0;exitY=0.5;exitDx=0;exitDy=0;entryX=0.6;entryY=0.976;entryDx=0;entryDy=0;entryPerimeter=0;" edge="1" parent="1" target="89">
                    <mxGeometry x="-0.4675" width="100" relative="1" as="geometry">
                        <mxPoint x="670" y="530" as="sourcePoint"/>
                        <mxPoint x="430" y="410" as="targetPoint"/>
                        <Array as="points">
                            <mxPoint x="670" y="528"/>
                            <mxPoint x="430" y="528"/>
                        </Array>
                        <mxPoint as="offset"/>
                    </mxGeometry>
                </mxCell>
                <mxCell id="91" value="" style="edgeStyle=segmentEdgeStyle;endArrow=classic;html=1;curved=0;rounded=0;endSize=8;startSize=8;sourcePerimeterSpacing=0;targetPerimeterSpacing=0;entryX=0.5;entryY=1;entryDx=0;entryDy=0;" edge="1" parent="1" source="89" target="59">
                    <mxGeometry width="100" relative="1" as="geometry">
                        <mxPoint x="733.98" y="180.00000000000003" as="sourcePoint"/>
                        <mxPoint x="540" y="410" as="targetPoint"/>
                        <Array as="points">
                            <mxPoint x="640" y="351"/>
                            <mxPoint x="640" y="350"/>
                            <mxPoint x="772" y="350"/>
                        </Array>
                    </mxGeometry>
                </mxCell>
                <mxCell id="92" value="Room Availability Display" style="edgeLabel;html=1;align=center;verticalAlign=middle;resizable=0;points=[];" vertex="1" connectable="0" parent="91">
                    <mxGeometry x="-0.1778" y="-1" relative="1" as="geometry">
                        <mxPoint x="-50" as="offset"/>
                    </mxGeometry>
                </mxCell>
                <mxCell id="93" value="" style="edgeStyle=segmentEdgeStyle;endArrow=classic;html=1;curved=0;rounded=0;endSize=8;startSize=8;sourcePerimeterSpacing=0;targetPerimeterSpacing=0;exitX=0.75;exitY=1;exitDx=0;exitDy=0;entryX=1;entryY=1;entryDx=0;entryDy=0;" edge="1" parent="1" source="59" target="89">
                    <mxGeometry width="100" relative="1" as="geometry">
                        <mxPoint x="742.03" y="205.00000000000003" as="sourcePoint"/>
                        <mxPoint x="449" y="380.02" as="targetPoint"/>
                        <Array as="points">
                            <mxPoint x="800" y="370"/>
                            <mxPoint x="474" y="370"/>
                        </Array>
                    </mxGeometry>
                </mxCell>
                <mxCell id="94" value="Viewing Service" style="edgeLabel;html=1;align=center;verticalAlign=middle;resizable=0;points=[];" vertex="1" connectable="0" parent="93">
                    <mxGeometry x="-0.1778" y="-1" relative="1" as="geometry">
                        <mxPoint x="-50" as="offset"/>
                    </mxGeometry>
                </mxCell>
                <mxCell id="95" value="" style="edgeStyle=segmentEdgeStyle;endArrow=classic;html=1;curved=0;rounded=0;endSize=8;startSize=8;sourcePerimeterSpacing=0;targetPerimeterSpacing=0;exitX=0.971;exitY=0.676;exitDx=0;exitDy=0;exitPerimeter=0;entryX=0;entryY=0.75;entryDx=0;entryDy=0;" edge="1" parent="1" source="89" target="59">
                    <mxGeometry width="100" relative="1" as="geometry">
                        <mxPoint x="580" y="260" as="sourcePoint"/>
                        <mxPoint x="680" y="300" as="targetPoint"/>
                        <Array as="points">
                            <mxPoint x="610" y="335"/>
                            <mxPoint x="610" y="240"/>
                            <mxPoint x="717" y="240"/>
                        </Array>
                    </mxGeometry>
                </mxCell>
                <mxCell id="96" value="Promotion Offer Display" style="edgeLabel;html=1;align=center;verticalAlign=middle;resizable=0;points=[];" vertex="1" connectable="0" parent="95">
                    <mxGeometry x="0.0378" relative="1" as="geometry">
                        <mxPoint x="40" y="-12" as="offset"/>
                    </mxGeometry>
                </mxCell>
                <mxCell id="97" value="" style="endArrow=classic;html=1;rounded=0;fontFamily=Helvetica;fontSize=11;fontColor=default;labelBackgroundColor=default;resizable=0;exitX=0.318;exitY=0.017;exitDx=0;exitDy=0;exitPerimeter=0;entryX=0.241;entryY=0.059;entryDx=0;entryDy=0;entryPerimeter=0;" edge="1" parent="1" source="58" target="89">
                    <mxGeometry relative="1" as="geometry">
                        <mxPoint x="60" y="65" as="sourcePoint"/>
                        <mxPoint x="370" y="235" as="targetPoint"/>
                        <Array as="points">
                            <mxPoint x="75" y="70"/>
                            <mxPoint x="240" y="70"/>
                            <mxPoint x="340" y="70"/>
                            <mxPoint x="340" y="106"/>
                            <mxPoint x="340" y="150"/>
                            <mxPoint x="340" y="210"/>
                            <mxPoint x="340" y="230"/>
                        </Array>
                    </mxGeometry>
                </mxCell>
                <mxCell id="98" value="Room Availability Inquiry" style="edgeLabel;resizable=0;html=1;;align=center;verticalAlign=middle;fontFamily=Helvetica;fontSize=11;fontColor=default;labelBackgroundColor=default;fillColor=none;gradientColor=none;" connectable="0" vertex="1" parent="97">
                    <mxGeometry relative="1" as="geometry">
                        <mxPoint x="-87" as="offset"/>
                    </mxGeometry>
                </mxCell>
                <mxCell id="99" value="" style="edgeStyle=segmentEdgeStyle;endArrow=classic;html=1;curved=0;rounded=0;endSize=8;startSize=8;sourcePerimeterSpacing=0;targetPerimeterSpacing=0;exitX=0.5;exitY=0;exitDx=0;exitDy=0;entryX=0.106;entryY=0.159;entryDx=0;entryDy=0;entryPerimeter=0;" edge="1" parent="1" source="58" target="89">
                    <mxGeometry width="100" relative="1" as="geometry">
                        <mxPoint x="180" y="150" as="sourcePoint"/>
                        <mxPoint x="280" y="190" as="targetPoint"/>
                        <Array as="points">
                            <mxPoint x="230" y="105"/>
                            <mxPoint x="230" y="247"/>
                        </Array>
                    </mxGeometry>
                </mxCell>
                <mxCell id="100" value="feedback submistion" style="edgeLabel;html=1;align=center;verticalAlign=middle;resizable=0;points=[];" vertex="1" connectable="0" parent="99">
                    <mxGeometry x="-0.0204" y="3" relative="1" as="geometry">
                        <mxPoint as="offset"/>
                    </mxGeometry>
                </mxCell>
                <mxCell id="101" value="" style="edgeStyle=none;orthogonalLoop=1;jettySize=auto;html=1;endArrow=classic;startArrow=classic;endSize=8;startSize=8;entryX=0.459;entryY=0.994;entryDx=0;entryDy=0;entryPerimeter=0;exitX=1;exitY=0.75;exitDx=0;exitDy=0;" edge="1" parent="1" target="89">
                    <mxGeometry width="100" relative="1" as="geometry">
                        <mxPoint x="160" y="565" as="sourcePoint"/>
                        <mxPoint x="390.03" y="390.98999999999995" as="targetPoint"/>
                        <Array as="points">
                            <mxPoint x="330" y="565"/>
                            <mxPoint x="330" y="470"/>
                            <mxPoint x="407" y="470"/>
                            <mxPoint x="410" y="400"/>
                        </Array>
                    </mxGeometry>
                </mxCell>
                <mxCell id="102" value="Booking confirmation &amp;amp; Cancellation" style="edgeLabel;html=1;align=center;verticalAlign=middle;resizable=0;points=[];" vertex="1" connectable="0" parent="101">
                    <mxGeometry x="-0.4487" y="-1" relative="1" as="geometry">
                        <mxPoint x="13" y="-16" as="offset"/>
                    </mxGeometry>
                </mxCell>
                <mxCell id="103" value="" style="edgeStyle=none;orthogonalLoop=1;jettySize=auto;html=1;entryX=0.224;entryY=0.924;entryDx=0;entryDy=0;entryPerimeter=0;" edge="1" parent="1" target="89">
                    <mxGeometry width="100" relative="1" as="geometry">
                        <mxPoint x="50" y="170" as="sourcePoint"/>
                        <mxPoint x="354" y="360" as="targetPoint"/>
                        <Array as="points">
                            <mxPoint x="50" y="280"/>
                            <mxPoint x="50" y="380"/>
                        </Array>
                    </mxGeometry>
                </mxCell>
                <mxCell id="104" value="Booking History Access" style="edgeLabel;html=1;align=center;verticalAlign=middle;resizable=0;points=[];" vertex="1" connectable="0" parent="103">
                    <mxGeometry x="0.2863" relative="1" as="geometry">
                        <mxPoint as="offset"/>
                    </mxGeometry>
                </mxCell>
                <mxCell id="105" value="" style="edgeStyle=none;orthogonalLoop=1;jettySize=auto;html=1;entryX=0.141;entryY=0.812;entryDx=0;entryDy=0;entryPerimeter=0;exitX=0.25;exitY=1;exitDx=0;exitDy=0;" edge="1" parent="1" source="58" target="89">
                    <mxGeometry width="100" relative="1" as="geometry">
                        <mxPoint x="245" y="360" as="sourcePoint"/>
                        <mxPoint x="345" y="360" as="targetPoint"/>
                        <Array as="points">
                            <mxPoint x="68" y="360"/>
                        </Array>
                    </mxGeometry>
                </mxCell>
                <mxCell id="106" value="Login account" style="edgeLabel;html=1;align=center;verticalAlign=middle;resizable=0;points=[];" vertex="1" connectable="0" parent="105">
                    <mxGeometry x="0.3876" y="1" relative="1" as="geometry">
                        <mxPoint as="offset"/>
                    </mxGeometry>
                </mxCell>
                <mxCell id="107" value="" style="edgeStyle=none;orthogonalLoop=1;jettySize=auto;html=1;endArrow=classic;startArrow=classic;endSize=8;startSize=8;entryX=0.241;entryY=0.941;entryDx=0;entryDy=0;entryPerimeter=0;exitX=0.5;exitY=0;exitDx=0;exitDy=0;" edge="1" parent="1" source="66" target="89">
                    <mxGeometry width="100" relative="1" as="geometry">
                        <mxPoint x="120" y="400" as="sourcePoint"/>
                        <mxPoint x="400" y="390" as="targetPoint"/>
                        <Array as="points">
                            <mxPoint x="100" y="400"/>
                            <mxPoint x="250" y="400"/>
                            <mxPoint x="370" y="400"/>
                        </Array>
                    </mxGeometry>
                </mxCell>
                <mxCell id="108" value="User Authetication" style="edgeLabel;html=1;align=center;verticalAlign=middle;resizable=0;points=[];" vertex="1" connectable="0" parent="107">
                    <mxGeometry x="0.1316" relative="1" as="geometry">
                        <mxPoint as="offset"/>
                    </mxGeometry>
                </mxCell>
                <mxCell id="109" value="" style="edgeStyle=none;orthogonalLoop=1;jettySize=auto;html=1;" edge="1" parent="1">
                    <mxGeometry width="100" relative="1" as="geometry">
                        <mxPoint x="460" y="377.93" as="sourcePoint"/>
                        <mxPoint x="750" y="480" as="targetPoint"/>
                        <Array as="points">
                            <mxPoint x="600" y="377.93"/>
                            <mxPoint x="750" y="377.93"/>
                        </Array>
                    </mxGeometry>
                </mxCell>
                <mxCell id="110" value="Customer, Room and Pricing Management&amp;nbsp;" style="edgeLabel;html=1;align=center;verticalAlign=middle;resizable=0;points=[];" vertex="1" connectable="0" parent="109">
                    <mxGeometry x="0.7344" y="2" relative="1" as="geometry">
                        <mxPoint x="-12" as="offset"/>
                    </mxGeometry>
                </mxCell>
                <mxCell id="111" value="" style="edgeStyle=none;orthogonalLoop=1;jettySize=auto;html=1;exitX=0;exitY=0;exitDx=0;exitDy=0;" edge="1" parent="1" source="64">
                    <mxGeometry width="100" relative="1" as="geometry">
                        <mxPoint x="449.00000000000006" y="390.00000000000006" as="sourcePoint"/>
                        <mxPoint x="450" y="382" as="targetPoint"/>
                        <Array as="points"/>
                    </mxGeometry>
                </mxCell>
                <mxCell id="112" value="&lt;span style=&quot;color: rgb(0, 0, 0);&quot;&gt;Report Generation&lt;/span&gt;" style="edgeLabel;html=1;align=center;verticalAlign=middle;resizable=0;points=[];" vertex="1" connectable="0" parent="111">
                    <mxGeometry x="-0.2485" y="2" relative="1" as="geometry">
                        <mxPoint as="offset"/>
                    </mxGeometry>
                </mxCell>
                <mxCell id="113" value="" style="edgeStyle=none;orthogonalLoop=1;jettySize=auto;html=1;entryX=0;entryY=0.5;entryDx=0;entryDy=0;" edge="1" parent="1" target="64">
                    <mxGeometry width="100" relative="1" as="geometry">
                        <mxPoint x="440" y="390" as="sourcePoint"/>
                        <mxPoint x="440" y="380" as="targetPoint"/>
                        <Array as="points">
                            <mxPoint x="440" y="510"/>
                        </Array>
                    </mxGeometry>
                </mxCell>
                <mxCell id="114" value="Revenue Report" style="edgeLabel;html=1;align=center;verticalAlign=middle;resizable=0;points=[];" vertex="1" connectable="0" parent="113">
                    <mxGeometry x="0.32" y="3" relative="1" as="geometry">
                        <mxPoint as="offset"/>
                    </mxGeometry>
                </mxCell>
                <mxCell id="115" value="" style="edgeStyle=none;orthogonalLoop=1;jettySize=auto;html=1;entryX=0.288;entryY=0.965;entryDx=0;entryDy=0;entryPerimeter=0;exitX=0.667;exitY=-0.017;exitDx=0;exitDy=0;exitPerimeter=0;" edge="1" parent="1" source="66" target="89">
                    <mxGeometry width="100" relative="1" as="geometry">
                        <mxPoint x="120" y="510" as="sourcePoint"/>
                        <mxPoint x="370" y="410" as="targetPoint"/>
                        <Array as="points">
                            <mxPoint x="120" y="410"/>
                            <mxPoint x="378" y="410"/>
                        </Array>
                    </mxGeometry>
                </mxCell>
                <mxCell id="116" value="Walk-in Booking Acception" style="edgeLabel;html=1;align=center;verticalAlign=middle;resizable=0;points=[];" vertex="1" connectable="0" parent="115">
                    <mxGeometry x="-0.6489" y="-3" relative="1" as="geometry">
                        <mxPoint x="47" as="offset"/>
                    </mxGeometry>
                </mxCell>
                <mxCell id="117" value="" style="edgeStyle=none;orthogonalLoop=1;jettySize=auto;html=1;exitX=1;exitY=0.75;exitDx=0;exitDy=0;entryX=0.406;entryY=1.006;entryDx=0;entryDy=0;entryPerimeter=0;" edge="1" parent="1" source="66" target="89">
                    <mxGeometry width="100" relative="1" as="geometry">
                        <mxPoint x="230" y="440" as="sourcePoint"/>
                        <mxPoint x="330" y="440" as="targetPoint"/>
                        <Array as="points"/>
                    </mxGeometry>
                </mxCell>
            </root>
        </mxGraphModel>
    </diagram>
</mxfile>